<mxfile host="app.diagrams.net" modified="2024-07-16T03:51:34.814Z" agent="Mozilla/5.0 (Windows NT 10.0; Win64; x64) AppleWebKit/537.36 (KHTML, like Gecko) Chrome/126.0.0.0 Safari/537.36 Edg/126.0.0.0" etag="3jXtVKer450gK6UP1WFc" version="24.6.5" type="github">
  <diagram id="C5RBs43oDa-KdzZeNtuy" name="Page-1">
    <mxGraphModel dx="2939" dy="1138" grid="1" gridSize="10" guides="1" tooltips="1" connect="1" arrows="1" fold="1" page="1" pageScale="1" pageWidth="827" pageHeight="1169" math="0" shadow="0">
      <root>
        <mxCell id="WIyWlLk6GJQsqaUBKTNV-0" />
        <mxCell id="WIyWlLk6GJQsqaUBKTNV-1" parent="WIyWlLk6GJQsqaUBKTNV-0" />
        <mxCell id="PNwoSHtVyWEk63IXKN23-18" value="" style="rounded=1;whiteSpace=wrap;html=1;absoluteArcSize=1;arcSize=14;strokeWidth=2;" vertex="1" parent="WIyWlLk6GJQsqaUBKTNV-1">
          <mxGeometry y="140" width="890" height="260" as="geometry" />
        </mxCell>
        <mxCell id="PNwoSHtVyWEk63IXKN23-21" value="" style="edgeStyle=orthogonalEdgeStyle;rounded=0;orthogonalLoop=1;jettySize=auto;html=1;" edge="1" parent="WIyWlLk6GJQsqaUBKTNV-1" source="PNwoSHtVyWEk63IXKN23-22" target="PNwoSHtVyWEk63IXKN23-24">
          <mxGeometry relative="1" as="geometry" />
        </mxCell>
        <mxCell id="PNwoSHtVyWEk63IXKN23-22" value="Perform cognitive task (Stroop Test)" style="whiteSpace=wrap;html=1;rounded=1;" vertex="1" parent="WIyWlLk6GJQsqaUBKTNV-1">
          <mxGeometry x="510" y="190" width="120" height="60" as="geometry" />
        </mxCell>
        <mxCell id="PNwoSHtVyWEk63IXKN23-68" value="" style="edgeStyle=orthogonalEdgeStyle;rounded=0;orthogonalLoop=1;jettySize=auto;html=1;" edge="1" parent="WIyWlLk6GJQsqaUBKTNV-1" source="PNwoSHtVyWEk63IXKN23-24" target="PNwoSHtVyWEk63IXKN23-27">
          <mxGeometry relative="1" as="geometry" />
        </mxCell>
        <mxCell id="PNwoSHtVyWEk63IXKN23-24" value="Perform stress-inducing task" style="whiteSpace=wrap;html=1;rounded=1;" vertex="1" parent="WIyWlLk6GJQsqaUBKTNV-1">
          <mxGeometry x="700" y="190" width="120" height="60" as="geometry" />
        </mxCell>
        <mxCell id="PNwoSHtVyWEk63IXKN23-58" value="" style="edgeStyle=orthogonalEdgeStyle;rounded=0;orthogonalLoop=1;jettySize=auto;html=1;" edge="1" parent="WIyWlLk6GJQsqaUBKTNV-1" source="PNwoSHtVyWEk63IXKN23-25" target="PNwoSHtVyWEk63IXKN23-22">
          <mxGeometry relative="1" as="geometry" />
        </mxCell>
        <mxCell id="PNwoSHtVyWEk63IXKN23-25" value="&#xa;&lt;span style=&quot;color: rgb(0, 0, 0); font-family: Helvetica; font-size: 12px; font-style: normal; font-variant-ligatures: normal; font-variant-caps: normal; font-weight: 400; letter-spacing: normal; orphans: 2; text-align: center; text-indent: 0px; text-transform: none; widows: 2; word-spacing: 0px; -webkit-text-stroke-width: 0px; white-space: normal; background-color: rgb(251, 251, 251); text-decoration-thickness: initial; text-decoration-style: initial; text-decoration-color: initial; display: inline !important; float: none;&quot;&gt;White screen, resting state recording&lt;/span&gt;&#xa;&#xa;" style="whiteSpace=wrap;html=1;rounded=1;glass=0;strokeWidth=1;shadow=0;" vertex="1" parent="WIyWlLk6GJQsqaUBKTNV-1">
          <mxGeometry x="270" y="190" width="120" height="60" as="geometry" />
        </mxCell>
        <mxCell id="PNwoSHtVyWEk63IXKN23-57" value="" style="edgeStyle=orthogonalEdgeStyle;rounded=0;orthogonalLoop=1;jettySize=auto;html=1;" edge="1" parent="WIyWlLk6GJQsqaUBKTNV-1" source="PNwoSHtVyWEk63IXKN23-26" target="PNwoSHtVyWEk63IXKN23-25">
          <mxGeometry relative="1" as="geometry" />
        </mxCell>
        <mxCell id="PNwoSHtVyWEk63IXKN23-26" value="VR + EEG placement&amp;nbsp;" style="rounded=0;whiteSpace=wrap;html=1;" vertex="1" parent="WIyWlLk6GJQsqaUBKTNV-1">
          <mxGeometry x="35" y="190" width="120" height="60" as="geometry" />
        </mxCell>
        <mxCell id="PNwoSHtVyWEk63IXKN23-27" value="Post-experiment questionnaire" style="rounded=0;whiteSpace=wrap;html=1;" vertex="1" parent="WIyWlLk6GJQsqaUBKTNV-1">
          <mxGeometry x="700" y="310" width="120" height="60" as="geometry" />
        </mxCell>
        <mxCell id="PNwoSHtVyWEk63IXKN23-28" value="" style="rounded=1;whiteSpace=wrap;html=1;absoluteArcSize=1;arcSize=14;strokeWidth=2;" vertex="1" parent="WIyWlLk6GJQsqaUBKTNV-1">
          <mxGeometry y="445" width="910" height="280" as="geometry" />
        </mxCell>
        <mxCell id="PNwoSHtVyWEk63IXKN23-41" value="" style="edgeStyle=orthogonalEdgeStyle;rounded=0;orthogonalLoop=1;jettySize=auto;html=1;" edge="1" parent="WIyWlLk6GJQsqaUBKTNV-1" source="PNwoSHtVyWEk63IXKN23-29" target="PNwoSHtVyWEk63IXKN23-31">
          <mxGeometry relative="1" as="geometry" />
        </mxCell>
        <mxCell id="PNwoSHtVyWEk63IXKN23-29" value="EEG" style="shape=cylinder3;whiteSpace=wrap;html=1;boundedLbl=1;backgroundOutline=1;size=15;" vertex="1" parent="WIyWlLk6GJQsqaUBKTNV-1">
          <mxGeometry x="827" y="460" width="70" height="80" as="geometry" />
        </mxCell>
        <mxCell id="PNwoSHtVyWEk63IXKN23-34" value="" style="edgeStyle=orthogonalEdgeStyle;rounded=0;orthogonalLoop=1;jettySize=auto;html=1;" edge="1" parent="WIyWlLk6GJQsqaUBKTNV-1" source="PNwoSHtVyWEk63IXKN23-31" target="PNwoSHtVyWEk63IXKN23-33">
          <mxGeometry relative="1" as="geometry" />
        </mxCell>
        <mxCell id="PNwoSHtVyWEk63IXKN23-31" value="Filtering" style="whiteSpace=wrap;html=1;" vertex="1" parent="WIyWlLk6GJQsqaUBKTNV-1">
          <mxGeometry x="660" y="470" width="120" height="60" as="geometry" />
        </mxCell>
        <mxCell id="PNwoSHtVyWEk63IXKN23-36" value="" style="edgeStyle=orthogonalEdgeStyle;rounded=0;orthogonalLoop=1;jettySize=auto;html=1;" edge="1" parent="WIyWlLk6GJQsqaUBKTNV-1" source="PNwoSHtVyWEk63IXKN23-33" target="PNwoSHtVyWEk63IXKN23-35">
          <mxGeometry relative="1" as="geometry" />
        </mxCell>
        <mxCell id="PNwoSHtVyWEk63IXKN23-33" value="Channel Location" style="whiteSpace=wrap;html=1;" vertex="1" parent="WIyWlLk6GJQsqaUBKTNV-1">
          <mxGeometry x="500" y="470" width="120" height="60" as="geometry" />
        </mxCell>
        <mxCell id="PNwoSHtVyWEk63IXKN23-38" value="" style="edgeStyle=orthogonalEdgeStyle;rounded=0;orthogonalLoop=1;jettySize=auto;html=1;" edge="1" parent="WIyWlLk6GJQsqaUBKTNV-1" source="PNwoSHtVyWEk63IXKN23-35" target="PNwoSHtVyWEk63IXKN23-37">
          <mxGeometry relative="1" as="geometry" />
        </mxCell>
        <mxCell id="PNwoSHtVyWEk63IXKN23-35" value="ICA" style="whiteSpace=wrap;html=1;" vertex="1" parent="WIyWlLk6GJQsqaUBKTNV-1">
          <mxGeometry x="350" y="460" width="120" height="60" as="geometry" />
        </mxCell>
        <mxCell id="PNwoSHtVyWEk63IXKN23-40" value="" style="edgeStyle=orthogonalEdgeStyle;rounded=0;orthogonalLoop=1;jettySize=auto;html=1;" edge="1" parent="WIyWlLk6GJQsqaUBKTNV-1" source="PNwoSHtVyWEk63IXKN23-37" target="PNwoSHtVyWEk63IXKN23-39">
          <mxGeometry relative="1" as="geometry" />
        </mxCell>
        <mxCell id="PNwoSHtVyWEk63IXKN23-37" value="Classify ICA components" style="whiteSpace=wrap;html=1;" vertex="1" parent="WIyWlLk6GJQsqaUBKTNV-1">
          <mxGeometry x="180" y="460" width="120" height="60" as="geometry" />
        </mxCell>
        <mxCell id="PNwoSHtVyWEk63IXKN23-43" value="" style="edgeStyle=orthogonalEdgeStyle;rounded=0;orthogonalLoop=1;jettySize=auto;html=1;" edge="1" parent="WIyWlLk6GJQsqaUBKTNV-1" source="PNwoSHtVyWEk63IXKN23-39" target="PNwoSHtVyWEk63IXKN23-42">
          <mxGeometry relative="1" as="geometry" />
        </mxCell>
        <mxCell id="PNwoSHtVyWEk63IXKN23-39" value="Remove muscles and eye components and channel and line noises" style="whiteSpace=wrap;html=1;" vertex="1" parent="WIyWlLk6GJQsqaUBKTNV-1">
          <mxGeometry x="20" y="460" width="120" height="60" as="geometry" />
        </mxCell>
        <mxCell id="PNwoSHtVyWEk63IXKN23-42" value="Cleared EEG" style="strokeWidth=2;html=1;shape=mxgraph.flowchart.database;whiteSpace=wrap;" vertex="1" parent="WIyWlLk6GJQsqaUBKTNV-1">
          <mxGeometry x="35" y="610" width="90" height="80" as="geometry" />
        </mxCell>
        <mxCell id="PNwoSHtVyWEk63IXKN23-47" value="" style="edgeStyle=orthogonalEdgeStyle;rounded=0;orthogonalLoop=1;jettySize=auto;html=1;" edge="1" parent="WIyWlLk6GJQsqaUBKTNV-1" source="PNwoSHtVyWEk63IXKN23-45" target="PNwoSHtVyWEk63IXKN23-46">
          <mxGeometry relative="1" as="geometry" />
        </mxCell>
        <mxCell id="PNwoSHtVyWEk63IXKN23-44" value="" style="rounded=1;whiteSpace=wrap;html=1;absoluteArcSize=1;arcSize=14;strokeWidth=2;" vertex="1" parent="WIyWlLk6GJQsqaUBKTNV-1">
          <mxGeometry x="-5" y="760" width="910" height="290" as="geometry" />
        </mxCell>
        <mxCell id="PNwoSHtVyWEk63IXKN23-45" value="Extract 10 seconds of each state" style="rounded=0;whiteSpace=wrap;html=1;" vertex="1" parent="WIyWlLk6GJQsqaUBKTNV-1">
          <mxGeometry x="20" y="810" width="120" height="60" as="geometry" />
        </mxCell>
        <mxCell id="PNwoSHtVyWEk63IXKN23-49" value="" style="edgeStyle=orthogonalEdgeStyle;rounded=0;orthogonalLoop=1;jettySize=auto;html=1;" edge="1" parent="WIyWlLk6GJQsqaUBKTNV-1" source="PNwoSHtVyWEk63IXKN23-46" target="PNwoSHtVyWEk63IXKN23-48">
          <mxGeometry relative="1" as="geometry" />
        </mxCell>
        <mxCell id="PNwoSHtVyWEk63IXKN23-46" value="Perform PSD for theta alpha beta gamma frequency bands" style="whiteSpace=wrap;html=1;rounded=0;" vertex="1" parent="WIyWlLk6GJQsqaUBKTNV-1">
          <mxGeometry x="20" y="960" width="120" height="60" as="geometry" />
        </mxCell>
        <mxCell id="PNwoSHtVyWEk63IXKN23-51" value="" style="edgeStyle=orthogonalEdgeStyle;rounded=0;orthogonalLoop=1;jettySize=auto;html=1;" edge="1" parent="WIyWlLk6GJQsqaUBKTNV-1" source="PNwoSHtVyWEk63IXKN23-48" target="PNwoSHtVyWEk63IXKN23-50">
          <mxGeometry relative="1" as="geometry" />
        </mxCell>
        <mxCell id="PNwoSHtVyWEk63IXKN23-48" value="Band Power comparison" style="whiteSpace=wrap;html=1;rounded=0;" vertex="1" parent="WIyWlLk6GJQsqaUBKTNV-1">
          <mxGeometry x="230" y="960" width="120" height="60" as="geometry" />
        </mxCell>
        <mxCell id="PNwoSHtVyWEk63IXKN23-53" value="" style="edgeStyle=orthogonalEdgeStyle;rounded=0;orthogonalLoop=1;jettySize=auto;html=1;entryX=0;entryY=0.5;entryDx=0;entryDy=0;" edge="1" parent="WIyWlLk6GJQsqaUBKTNV-1" source="PNwoSHtVyWEk63IXKN23-50" target="PNwoSHtVyWEk63IXKN23-54">
          <mxGeometry relative="1" as="geometry">
            <mxPoint x="610" y="1060" as="targetPoint" />
          </mxGeometry>
        </mxCell>
        <mxCell id="PNwoSHtVyWEk63IXKN23-50" value="SPN Analysis" style="whiteSpace=wrap;html=1;rounded=0;" vertex="1" parent="WIyWlLk6GJQsqaUBKTNV-1">
          <mxGeometry x="430" y="960" width="120" height="60" as="geometry" />
        </mxCell>
        <mxCell id="PNwoSHtVyWEk63IXKN23-54" value="Statistical Analysis (t-test)" style="shape=hexagon;perimeter=hexagonPerimeter2;whiteSpace=wrap;html=1;fixedSize=1;" vertex="1" parent="WIyWlLk6GJQsqaUBKTNV-1">
          <mxGeometry x="760" y="950" width="120" height="80" as="geometry" />
        </mxCell>
        <mxCell id="PNwoSHtVyWEk63IXKN23-63" value="" style="endArrow=classic;html=1;rounded=0;exitX=1;exitY=0.5;exitDx=0;exitDy=0;entryX=1;entryY=0.5;entryDx=0;entryDy=0;entryPerimeter=0;" edge="1" parent="WIyWlLk6GJQsqaUBKTNV-1" source="PNwoSHtVyWEk63IXKN23-18" target="PNwoSHtVyWEk63IXKN23-29">
          <mxGeometry width="50" height="50" relative="1" as="geometry">
            <mxPoint x="780" y="500" as="sourcePoint" />
            <mxPoint x="1020" y="150" as="targetPoint" />
            <Array as="points">
              <mxPoint x="1020" y="270" />
              <mxPoint x="1020" y="500" />
            </Array>
          </mxGeometry>
        </mxCell>
        <mxCell id="PNwoSHtVyWEk63IXKN23-64" value="" style="endArrow=classic;html=1;rounded=0;entryX=0.5;entryY=0;entryDx=0;entryDy=0;exitX=0.5;exitY=1;exitDx=0;exitDy=0;exitPerimeter=0;" edge="1" parent="WIyWlLk6GJQsqaUBKTNV-1" source="PNwoSHtVyWEk63IXKN23-42" target="PNwoSHtVyWEk63IXKN23-45">
          <mxGeometry width="50" height="50" relative="1" as="geometry">
            <mxPoint x="240" y="780" as="sourcePoint" />
            <mxPoint x="290" y="730" as="targetPoint" />
          </mxGeometry>
        </mxCell>
        <mxCell id="PNwoSHtVyWEk63IXKN23-67" style="edgeStyle=orthogonalEdgeStyle;rounded=0;orthogonalLoop=1;jettySize=auto;html=1;exitX=0.5;exitY=1;exitDx=0;exitDy=0;entryX=0;entryY=0.5;entryDx=0;entryDy=0;" edge="1" parent="WIyWlLk6GJQsqaUBKTNV-1" source="PNwoSHtVyWEk63IXKN23-27" target="PNwoSHtVyWEk63IXKN23-54">
          <mxGeometry relative="1" as="geometry">
            <Array as="points">
              <mxPoint x="760" y="420" />
              <mxPoint x="980" y="420" />
              <mxPoint x="980" y="910" />
              <mxPoint x="760" y="910" />
            </Array>
          </mxGeometry>
        </mxCell>
      </root>
    </mxGraphModel>
  </diagram>
</mxfile>
